<svg xmlns="http://www.w3.org/2000/svg" width="1200" height="320" viewBox="0 0 1200 320" role="img" aria-labelledby="title desc">
  <title id="title">REDscript Conflict Reporter - Banner (Light)</title>
  <desc id="desc">Light variant cyber banner with subtle glitch and neon accents</desc>
  <defs>
    <linearGradient id="grad-bg-light" x1="0" y1="0" x2="1" y2="1">
      <stop offset="0%" stop-color="#f5f7fa"/>
      <stop offset="70%" stop-color="#e8ecf2"/>
      <stop offset="100%" stop-color="#dde3ea"/>
    </linearGradient>
    <linearGradient id="grad-accent" x1="0" y1="0" x2="1" y2="0">
      <stop offset="0%" stop-color="#00E5FF"/>
      <stop offset="50%" stop-color="#FF007A"/>
      <stop offset="100%" stop-color="#B9C300"/>
    </linearGradient>
    <filter id="glow-line" x="-30%" y="-30%" width="160%" height="160%">
      <feGaussianBlur in="SourceGraphic" stdDeviation="4" result="blur"/>
      <feColorMatrix in="blur" type="matrix" values="0 0 0 0 0  0 0.9 1 0 0  0 1 1 0 0  0 0 0 0.35 0"/>
    </filter>
    <pattern id="gridLight" width="60" height="60" patternUnits="userSpaceOnUse">
      <rect width="60" height="60" fill="#f2f5f8"/>
      <g stroke="#d2d9e2" stroke-width="1" opacity="0.6">
        <path d="M0 8h60M0 28h60M0 48h60"/>
        <path d="M10 0v60M30 0v60M50 0v60"/>
      </g>
      <g stroke="#c0c8d3" stroke-width="1" opacity="0.25">
        <path d="M0 18h60M0 38h60"/>
        <path d="M20 0v60M40 0v60"/>
      </g>
    </pattern>
    <clipPath id="glitchClipLight">
      <rect x="0" y="0" width="1200" height="320"/>
      <rect x="120" y="40" width="180" height="14"/>
      <rect x="118" y="160" width="220" height="10"/>
      <rect x="600" y="110" width="200" height="12"/>
      <rect x="860" y="220" width="160" height="10"/>
    </clipPath>
    <!-- Abstract decorative Redscript-style icon (original work) -->
    <symbol id="rsIcon" viewBox="0 0 24 24">
      <path d="M7 4 L5 6 L5 10 L7 12 L5 14 L5 18 L7 20" fill="none" stroke="currentColor" stroke-width="1.6" stroke-linecap="round" stroke-linejoin="round"/>
      <path d="M17 4 L19 6 L19 10 L17 12 L19 14 L19 18 L17 20" fill="none" stroke="currentColor" stroke-width="1.6" stroke-linecap="round" stroke-linejoin="round"/>
      <circle cx="12" cy="12" r="3.2" fill="none" stroke="currentColor" stroke-width="1.4"/>
      <circle cx="12" cy="12" r="1.2" fill="currentColor"/>
      <path d="M12 5.2 L12 3" stroke="currentColor" stroke-width="1.2" stroke-linecap="round"/>
      <path d="M12 21 L12 18.8" stroke="currentColor" stroke-width="1.2" stroke-linecap="round"/>
      <path d="M8.4 12 L4 12" stroke="currentColor" stroke-width="1.2" stroke-linecap="round"/>
      <path d="M20 12 L15.6 12" stroke="currentColor" stroke-width="1.2" stroke-linecap="round"/>
    </symbol>
  </defs>
  <rect width="1200" height="320" fill="url(#grad-bg-light)"/>
  <rect width="1200" height="320" fill="url(#gridLight)" opacity="0.55"/>
  <rect x="0" y="0" width="16" height="320" fill="url(#grad-accent)"/>
  <g filter="url(#glow-line)">
    <rect x="0" y="0" width="16" height="320" fill="#00eaff" opacity="0.30"/>
  </g>
  <!-- Background icon motif layer -->
  <g id="bg-icons" opacity="0.5" aria-hidden="true">
    <!-- Soft desaturated strokes for light theme -->
    <g fill="none" stroke="#4db4c3">
      <use href="#rsIcon" x="1040" y="30" width="40" height="40" opacity="0.20"/>
      <use href="#rsIcon" x="180" y="36" width="34" height="34" opacity="0.16"/>
      <use href="#rsIcon" x="640" y="14" width="44" height="44" opacity="0.14"/>
    </g>
    <g fill="none" stroke="#c4588e">
      <use href="#rsIcon" x="320" y="208" width="38" height="38" opacity="0.18"/>
      <use href="#rsIcon" x="900" y="176" width="34" height="34" opacity="0.15"/>
    </g>
    <g fill="none" stroke="#a2ad33">
      <use href="#rsIcon" x="520" y="228" width="40" height="40" opacity="0.13"/>
      <use href="#rsIcon" x="1080" y="210" width="36" height="36" opacity="0.12"/>
    </g>
    <g fill="#00AFC4" stroke="none" opacity="0.30">
      <circle cx="1060" cy="50" r="2"/>
      <circle cx="662" cy="36" r="2"/>
      <circle cx="200" cy="56" r="2"/>
      <circle cx="340" cy="228" r="2"/>
      <circle cx="920" cy="196" r="2"/>
      <circle cx="540" cy="248" r="2"/>
      <circle cx="1098" cy="228" r="2"/>
    </g>
  </g>
  <g clip-path="url(#glitchClipLight)">
    <text x="160" y="150" font-family="'Segoe UI','Consolas',monospace" font-size="70" font-weight="700" letter-spacing="1" fill="#1c2734" >REDscript Conflict Reporter</text>
    <text x="164" y="150" font-family="'Segoe UI','Consolas',monospace" font-size="70" font-weight="700" letter-spacing="1" fill="#00AFC4" opacity="0.25">REDscript Conflict Reporter</text>
    <text x="158" y="150" font-family="'Segoe UI','Consolas',monospace" font-size="70" font-weight="700" letter-spacing="1" fill="#D90065" opacity="0.20">REDscript Conflict Reporter</text>
    <text x="162" y="150" font-family="'Segoe UI','Consolas',monospace" font-size="70" font-weight="700" letter-spacing="1" fill="#9FA800" opacity="0.12">REDscript Conflict Reporter</text>
  <text x="164" y="212" font-family="'Consolas','Segoe UI',monospace" font-size="30" font-weight="500" letter-spacing="2" fill="#334d63" >@replaceMethod Conflict &amp; Impact Analyzer</text>
  <text x="166" y="212" font-family="'Consolas','Segoe UI',monospace" font-size="30" font-weight="500" letter-spacing="2" fill="#00AFC4" opacity="0.30">@replaceMethod Conflict &amp; Impact Analyzer</text>
  </g>
  <g>
    <path d="M118 70h420" stroke="#00BFD6" stroke-width="2" opacity="0.65"/>
    <path d="M118 74h300" stroke="#D90065" stroke-width="2" opacity="0.50"/>
    <path d="M118 78h160" stroke="#9FA800" stroke-width="2" opacity="0.45"/>
    <path d="M118 240h460" stroke="#00BFD6" stroke-width="2" opacity="0.55"/>
    <path d="M118 244h120" stroke="#D90065" stroke-width="2" opacity="0.45"/>
  </g>
  <g font-size="12" font-family="Consolas,monospace" fill="#6e7a85" opacity="0.85">
    <text x="1020" y="300">Not affiliated with CD PROJEKT RED</text>
  </g>
</svg>